<?xml version="1.0" standalone="no"?>
<!DOCTYPE svg PUBLIC "-//W3C//DTD SVG 20010904//EN"
 "http://www.w3.org/TR/2001/REC-SVG-20010904/DTD/svg10.dtd">
<svg version="1.0" xmlns="http://www.w3.org/2000/svg"
 width="500.000000pt" height="500.000000pt" viewBox="0 0 500.000000 500.000000"
 preserveAspectRatio="xMidYMid meet">

<g transform="translate(0.000000,500.000000) scale(0.100000,-0.100000)"
fill="#000000" stroke="none">
<path d="M3703 4398 c-55 -48 -103 -103 -146 -167 -21 -31 -43 -61 -50 -66
-23 -19 -57 -74 -57 -92 0 -19 -77 -153 -88 -153 -11 0 -45 -60 -38 -67 3 -3
11 6 17 21 20 42 28 30 13 -19 -15 -52 -39 -82 -50 -64 -4 8 -12 2 -21 -16
-14 -25 -13 -29 7 -49 16 -15 24 -17 27 -8 3 6 9 10 14 6 5 -3 9 8 9 24 0 29
80 152 98 152 5 0 25 24 46 54 20 30 53 65 72 78 37 25 38 27 25 46 -5 9 -15
2 -34 -25 -39 -56 -137 -150 -137 -132 0 9 18 44 40 78 22 34 38 66 35 70 -2
5 13 35 35 67 22 33 50 74 63 93 12 18 57 70 100 114 42 45 77 83 77 84 0 11
-25 -2 -57 -29z"/>
<path d="M3307 4393 c-3 -5 -17 -39 -31 -77 -14 -37 -35 -79 -46 -93 -11 -14
-20 -37 -19 -52 l0 -26 11 25 c6 14 21 41 34 60 24 37 68 159 61 167 -3 2 -7
0 -10 -4z"/>
<path d="M4005 4349 c-77 -61 -423 -418 -462 -477 -38 -56 -56 -74 -47 -45 3
10 -1 7 -9 -7 -9 -14 -13 -28 -11 -32 3 -4 -8 -29 -23 -55 -15 -27 -35 -61
-43 -78 -8 -16 -26 -35 -39 -41 -13 -7 -28 -21 -35 -32 -48 -82 -76 -129 -85
-139 -16 -18 -13 -40 4 -47 19 -7 93 64 135 131 39 61 126 153 145 153 8 0 22
15 31 33 23 44 44 67 64 67 10 0 42 35 76 82 81 112 206 261 266 316 22 20 25
28 17 43 -12 23 2 48 42 74 27 19 47 72 32 86 -5 4 -30 -10 -58 -32z"/>
<path d="M3233 4358 c-109 -121 -155 -229 -151 -362 1 -48 5 -89 8 -91 6 -4
10 23 23 165 1 14 5 27 8 30 14 11 38 81 32 95 -6 16 53 109 93 146 13 12 24
26 24 31 0 15 -16 8 -37 -14z m-112 -241 c-10 -9 -11 -8 -5 6 3 10 9 15 12 12
3 -3 0 -11 -7 -18z"/>
<path d="M3419 4317 c-34 -40 -119 -162 -119 -170 0 -2 -22 -44 -50 -93 -27
-49 -50 -96 -50 -104 0 -8 -9 -26 -19 -39 -24 -32 -37 -11 -16 28 19 37 20 94
3 89 -7 -3 -16 -25 -19 -50 -4 -25 -12 -55 -19 -68 -14 -27 -6 -52 15 -44 23
9 18 -4 -12 -37 l-28 -29 -7 37 c-4 23 -6 3 -4 -52 1 -50 6 -96 10 -103 13
-21 36 6 36 42 0 17 11 53 25 80 14 27 25 58 25 68 0 28 69 160 80 153 6 -3
10 -1 10 5 0 33 103 224 144 268 25 27 46 52 46 56 0 15 -17 2 -51 -37z"/>
<path d="M2967 4283 c-34 -55 -71 -270 -61 -357 4 -32 2 -61 -5 -74 -14 -26
-5 -94 16 -119 13 -16 14 -15 9 14 -3 18 -1 35 4 38 6 3 10 40 10 81 0 42 5
84 10 95 7 13 7 19 0 19 -19 0 -12 161 10 226 20 56 24 104 7 77z"/>
<path d="M3100 4275 c0 -19 -59 -167 -71 -180 -7 -6 -13 -5 -18 3 -6 9 -12 0
-20 -30 -7 -24 -14 -50 -17 -58 -3 -9 1 -7 10 4 16 19 16 19 16 -6 0 -32 -19
-176 -26 -200 -4 -12 0 -18 10 -18 13 0 16 -12 16 -62 0 -114 11 -52 14 83 2
74 7 150 11 169 14 67 45 168 74 239 23 55 27 71 15 71 -8 0 -14 -7 -14 -15z"/>
<path d="M3734 4178 l-29 -33 30 25 c17 14 34 28 40 32 5 5 5 8 -1 8 -6 0 -23
-15 -40 -32z"/>
<path d="M2664 4085 c-111 -125 -156 -210 -123 -231 6 -3 9 -15 6 -25 -3 -10
-1 -35 3 -56 5 -21 17 -91 26 -156 17 -115 17 -118 -2 -135 -31 -27 -182 -142
-188 -142 -2 0 -6 17 -8 37 l-3 37 -90 -3 c-97 -3 -107 -7 -175 -59 l-45 -35
40 8 c22 5 61 9 88 10 26 2 53 7 60 12 6 6 29 13 50 17 32 6 37 4 37 -12 0
-10 4 -22 9 -27 12 -12 0 -28 -54 -74 -57 -49 -77 -77 -80 -114 -5 -60 25
-230 51 -282 28 -58 29 -65 11 -65 -33 0 -66 -160 -46 -222 6 -20 9 -43 6 -52
-8 -19 -55 -24 -87 -9 -14 7 -32 13 -41 13 -8 0 -28 13 -43 29 -22 23 -28 40
-33 97 -5 62 -3 75 21 121 38 76 35 110 -14 157 -37 35 -42 37 -72 27 -55 -16
-110 -31 -163 -41 -86 -18 -145 -41 -145 -56 0 -9 -4 -12 -10 -9 -5 3 -22 -1
-38 -9 -25 -13 -56 -14 -208 -5 -98 5 -194 14 -213 19 -54 15 -89 52 -102 107
-6 26 -15 55 -19 63 -4 8 1 40 11 70 10 30 18 61 18 68 1 8 7 28 15 45 7 18
19 46 25 62 11 30 126 155 142 155 9 0 97 52 194 114 95 61 271 127 373 140
24 3 48 8 53 12 5 3 33 8 62 11 66 7 100 20 95 35 -7 21 -50 25 -118 12 -274
-53 -395 -91 -492 -153 -24 -16 -77 -48 -118 -71 -54 -31 -104 -72 -180 -150
l-105 -108 -33 -103 c-36 -116 -39 -144 -17 -165 8 -9 20 -36 26 -60 8 -31 16
-43 25 -40 8 3 20 -8 30 -29 23 -49 82 -99 99 -85 10 8 23 7 50 -5 21 -8 55
-15 76 -15 25 0 41 -6 47 -16 8 -14 23 -15 93 -11 92 6 250 33 259 45 3 5 39
15 82 24 42 9 94 28 115 41 43 27 87 44 82 30 -2 -4 -21 -43 -42 -86 -23 -47
-36 -85 -32 -95 6 -16 7 -16 19 1 7 9 16 17 19 17 3 0 3 -38 0 -84 -6 -83 -5
-85 22 -110 16 -15 40 -29 54 -33 14 -3 37 -14 50 -25 30 -23 132 -26 151 -3
31 38 58 3 36 -48 -19 -47 -33 -55 -126 -66 -90 -12 -106 -20 -96 -47 6 -14
17 -16 80 -11 72 5 139 30 164 60 7 8 18 31 25 52 l13 38 70 1 c38 1 77 5 87
10 15 7 17 3 17 -35 -1 -24 -7 -62 -15 -84 -19 -53 -10 -142 16 -156 14 -7 28
-3 59 16 22 14 44 25 49 25 6 0 13 -22 17 -50 4 -34 12 -50 23 -53 9 -1 44 21
78 51 34 29 67 51 73 47 5 -3 10 -26 10 -50 0 -41 26 -105 42 -105 4 0 14 15
21 33 18 41 65 97 82 97 7 0 20 -11 29 -25 21 -33 33 -32 73 7 l32 31 20 -47
21 -47 25 17 c14 9 25 23 25 31 0 7 9 32 20 54 l21 40 28 -20 c16 -11 31 -18
33 -15 3 2 3 56 0 119 -5 113 -4 115 17 115 27 0 54 -14 102 -51 20 -16 39
-29 42 -29 3 0 23 19 45 42 22 23 66 56 98 72 55 29 58 33 57 66 -2 37 -18
152 -27 185 -3 13 9 44 34 85 87 143 118 239 107 324 -4 24 -20 70 -37 100
-16 31 -30 63 -30 71 0 9 -4 23 -9 33 -5 9 -19 38 -31 64 -12 27 -36 58 -53
70 -18 12 -35 26 -38 31 -4 6 -14 7 -23 4 -18 -7 -22 -42 -6 -52 20 -13 95
-121 107 -154 14 -40 28 -112 24 -125 -1 -5 8 -19 20 -32 21 -22 21 -26 9 -86
-17 -91 -69 -202 -178 -378 -28 -44 -27 -50 2 -50 14 0 33 11 44 25 28 35 35
31 30 -17 -3 -24 -1 -56 3 -71 7 -25 4 -31 -22 -45 -17 -9 -54 -31 -83 -47
l-51 -31 -65 24 c-52 18 -73 21 -105 15 -43 -9 -42 -4 -28 -95 4 -32 1 -41
-25 -65 -16 -15 -37 -43 -46 -61 -9 -18 -21 -30 -27 -27 -5 4 -2 18 8 35 19
33 13 47 -14 34 -10 -4 -24 -8 -32 -8 -8 -1 -25 -21 -38 -46 -13 -25 -28 -49
-34 -55 -13 -13 -29 12 -29 48 0 42 -23 33 -75 -28 -52 -61 -65 -67 -65 -31 0
14 -5 28 -10 31 -6 4 -8 15 -5 25 3 10 1 21 -5 25 -16 10 -80 -14 -124 -46
-22 -16 -43 -29 -47 -29 -4 0 -13 22 -20 50 -7 27 -18 50 -23 50 -6 0 -26 -14
-45 -30 -53 -47 -59 -41 -40 40 17 69 19 230 4 230 -7 0 -18 -6 -24 -14 -16
-19 -69 -37 -76 -26 -3 4 -23 6 -44 3 -88 -12 -108 12 -112 132 -3 87 8 146
33 163 23 16 24 66 2 118 -25 59 -54 191 -47 211 3 10 23 41 43 68 37 50 162
140 371 268 14 8 52 23 83 32 57 17 61 21 50 49 -12 32 -40 37 -86 16 -23 -11
-50 -20 -58 -20 -18 0 -42 104 -61 262 -10 88 -10 99 7 127 10 17 23 31 29 31
6 0 21 17 33 38 12 20 37 54 57 75 37 41 42 56 23 75 -21 21 -36 13 -94 -53z"/>
<path d="M3196 4113 c-4 -16 -9 -37 -13 -48 -4 -16 -3 -18 8 -7 7 7 14 28 16
47 2 42 -2 45 -11 8z"/>
<path d="M3646 4078 c-67 -87 -95 -128 -88 -127 7 0 98 114 114 144 15 26 0
16 -26 -17z"/>
<path d="M2823 3999 c3 -23 -1 -61 -9 -88 -17 -56 -17 -55 -1 -39 6 7 22 42
35 77 17 48 18 60 7 51 -13 -11 -15 -8 -15 14 0 14 -5 26 -11 26 -8 0 -10 -14
-6 -41z"/>
<path d="M3523 3948 c-20 -26 -26 -41 -15 -34 12 7 36 46 29 46 -3 0 -9 -6
-14 -12z"/>
<path d="M3250 3915 c0 -8 2 -15 4 -15 2 0 6 7 10 15 3 8 1 15 -4 15 -6 0 -10
-7 -10 -15z"/>
<path d="M3226 3832 c-18 -67 -19 -72 -8 -72 8 0 35 121 28 127 -2 2 -11 -23
-20 -55z"/>
<path d="M2656 3833 c2 -57 21 -137 43 -178 l16 -30 3 32 c2 17 -8 65 -22 107
-14 42 -26 85 -26 96 0 11 -4 20 -8 20 -5 0 -7 -21 -6 -47z"/>
<path d="M2733 3813 c6 -77 26 -163 37 -163 4 0 1 29 -5 65 -7 35 -10 75 -8
89 7 33 -4 76 -19 76 -7 0 -9 -21 -5 -67z"/>
<path d="M3391 3792 c-7 -13 -11 -26 -8 -28 8 -8 29 25 25 38 -3 8 -9 4 -17
-10z"/>
<path d="M3346 3721 c-10 -11 -13 -21 -7 -25 10 -7 14 -3 24 27 8 22 4 22 -17
-2z"/>
<path d="M2792 3710 c0 -14 2 -19 5 -12 2 6 2 18 0 25 -3 6 -5 1 -5 -13z"/>
<path d="M2198 3673 c6 -2 18 -2 25 0 6 3 1 5 -13 5 -14 0 -19 -2 -12 -5z"/>
<path d="M1925 3630 c-3 -5 -2 -10 4 -10 5 0 13 5 16 10 3 6 2 10 -4 10 -5 0
-13 -4 -16 -10z"/>
<path d="M2049 3589 c-19 -16 -20 -18 -4 -10 34 17 51 31 39 31 -7 0 -22 -9
-35 -21z"/>
<path d="M1849 3573 c-13 -16 -12 -17 4 -4 16 13 21 21 13 21 -2 0 -10 -8 -17
-17z"/>
<path d="M2358 3563 c7 -3 16 -2 19 1 4 3 -2 6 -13 5 -11 0 -14 -3 -6 -6z"/>
<path d="M1752 3505 c0 -16 2 -22 5 -12 2 9 2 23 0 30 -3 6 -5 -1 -5 -18z"/>
<path d="M2098 3519 c-8 -25 -149 -32 -164 -8 -9 15 -34 10 -34 -7 0 -38 128
-53 205 -24 21 8 25 13 16 24 -6 7 -8 16 -4 19 3 4 1 7 -4 7 -6 0 -13 -5 -15
-11z"/>
<path d="M1649 3442 c-34 -34 -59 -84 -59 -115 0 -23 5 -25 68 -35 62 -9 144
-3 158 11 14 14 -11 28 -44 26 -79 -5 -95 -1 -89 24 3 12 -1 31 -9 41 -20 28
-18 39 5 26 17 -9 19 -7 16 12 -7 36 -19 38 -46 10z m1 -93 c-10 -17 -30 -27
-30 -13 0 15 22 44 31 39 5 -4 5 -13 -1 -26z"/>
<path d="M1348 3363 c-25 -27 -51 -59 -57 -73 l-12 -25 18 25 c10 14 38 46 62
73 24 26 42 47 39 47 -2 0 -24 -21 -50 -47z"/>
<path d="M1558 3385 c-3 -11 -9 -29 -13 -40 -3 -11 1 -7 10 8 9 16 15 33 12
40 -2 6 -6 3 -9 -8z"/>
<path d="M1222 3255 c-7 -14 -12 -34 -12 -43 1 -9 7 1 15 23 16 45 14 58 -3
20z"/>
<path d="M1424 3255 c-3 -14 -12 -25 -20 -25 -8 0 -14 -5 -14 -10 0 -6 -10
-24 -21 -40 -12 -16 -19 -36 -16 -44 4 -9 1 -16 -6 -16 -8 0 -8 -3 2 -9 7 -5
22 -6 32 -4 11 3 27 -1 36 -8 15 -12 16 -12 9 5 -6 18 -6 19 11 4 18 -16 100
-23 137 -12 15 5 16 8 5 15 -9 6 -3 7 17 3 27 -5 32 -3 37 17 7 25 -9 42 -31
34 -8 -3 -27 -5 -44 -5 -30 0 -31 0 -13 -20 16 -17 16 -20 2 -20 -9 0 -19 9
-22 20 -5 17 -14 20 -43 18 l-36 -3 3 45 c1 25 7 50 12 56 10 12 2 24 -17 24
-8 0 -16 -11 -20 -25z m-4 -95 c0 -23 -4 -30 -20 -30 -24 0 -25 8 -4 38 20 29
24 28 24 -8z"/>
<path d="M1261 3229 c-14 -40 -14 -119 -1 -119 6 0 8 15 4 39 -4 22 -1 54 5
72 6 18 9 34 7 36 -2 2 -9 -10 -15 -28z"/>
<path d="M1510 3235 c0 -14 4 -25 9 -25 4 0 6 11 3 25 -2 14 -6 25 -8 25 -2 0
-4 -11 -4 -25z"/>
<path d="M1931 3240 c-13 -11 -19 -20 -14 -20 6 0 18 9 28 20 23 25 17 25 -14
0z"/>
<path d="M1618 3213 c7 -3 16 -2 19 1 4 3 -2 6 -13 5 -11 0 -14 -3 -6 -6z"/>
<path d="M2093 3203 c-23 -5 -98 -72 -89 -81 3 -2 24 7 46 22 47 31 58 32 76
9 11 -16 13 -16 19 9 4 15 4 32 0 37 -6 11 -13 12 -52 4z"/>
<path d="M1960 3135 c-14 -8 -20 -15 -15 -15 6 0 -1 -10 -14 -21 -13 -11 -21
-22 -18 -25 3 -3 15 4 27 16 11 11 28 19 37 18 10 -2 17 5 19 20 4 25 -1 27
-36 7z"/>
<path d="M2418 3100 c-26 -15 -34 -92 -14 -134 9 -19 16 -43 16 -54 0 -31 47
-79 62 -64 9 9 6 34 -11 106 -13 52 -20 99 -17 105 9 13 85 14 146 0 94 -20
125 -22 138 -6 11 13 8 19 -17 36 -26 19 -43 21 -158 21 -70 0 -136 -5 -145
-10z"/>
<path d="M1202 3083 c4 -13 -1 -25 -13 -34 -22 -16 -24 -47 -6 -109 10 -34 21
-49 46 -62 31 -15 98 -17 121 -3 16 10 -2 37 -21 32 -12 -3 -20 2 -24 14 -4
13 -16 19 -34 19 -15 0 -35 6 -45 13 -15 11 -16 19 -8 53 13 51 11 86 -7 92
-10 3 -12 -1 -9 -15z"/>
<path d="M1176 3075 c-3 -8 -1 -15 4 -15 6 0 10 7 10 15 0 8 -2 15 -4 15 -2 0
-6 -7 -10 -15z"/>
<path d="M3177 3005 c-10 -25 70 -71 194 -111 42 -13 84 -33 93 -43 17 -19 16
-21 -41 -63 -32 -24 -78 -52 -101 -62 l-43 -19 -32 30 c-48 46 -76 58 -84 37
-4 -11 13 -35 61 -80 37 -35 73 -64 80 -64 7 0 21 9 31 20 10 11 22 20 27 20
15 0 127 81 148 107 20 26 27 88 12 108 -26 37 -75 63 -128 70 -32 4 -86 20
-120 36 -69 33 -89 36 -97 14z"/>
<path d="M1478 2983 c6 -2 18 -2 25 0 6 3 1 5 -13 5 -14 0 -19 -2 -12 -5z"/>
<path d="M1323 2943 c-26 -9 -12 -23 23 -23 23 0 33 4 28 11 -4 8 0 9 15 4 12
-3 21 -2 21 4 0 10 -63 12 -87 4z"/>
<path d="M1368 2903 c6 -2 18 -2 25 0 6 3 1 5 -13 5 -14 0 -19 -2 -12 -5z"/>
<path d="M2690 2831 c-25 -10 -70 -29 -100 -40 l-55 -22 -14 20 c-7 12 -22 21
-32 21 -15 0 -19 -7 -19 -35 0 -28 5 -37 30 -50 41 -21 56 -19 109 13 25 16
78 39 116 52 88 29 88 29 74 46 -16 19 -55 17 -109 -5z"/>
<path d="M1041 2766 c-24 -98 -7 -195 41 -237 30 -25 69 -45 88 -45 24 1 18
41 -6 44 -12 2 -34 17 -50 33 -28 29 -29 35 -32 140 -3 81 -7 109 -17 109 -7
0 -18 -20 -24 -44z"/>
<path d="M2875 2760 c-19 -30 -55 -193 -55 -247 0 -34 -4 -65 -10 -68 -5 -3
-10 -12 -10 -20 0 -18 76 -31 95 -15 11 10 24 7 60 -10 63 -31 81 -25 77 25
-2 22 -10 56 -19 75 -9 19 -20 55 -24 80 -20 124 -49 190 -84 190 -13 0 -27
-5 -30 -10z m54 -156 c11 -25 23 -60 27 -79 6 -34 0 -41 -30 -36 -5 1 -19 -8
-32 -20 -13 -12 -27 -20 -30 -16 -20 20 15 215 36 202 5 -3 18 -26 29 -51z"/>
<path d="M1174 2706 c-9 -24 5 -87 27 -117 10 -15 19 -33 19 -41 0 -8 14 -30
30 -48 17 -18 30 -36 30 -40 0 -3 27 -19 60 -35 33 -16 60 -32 60 -37 0 -12
58 -10 81 2 30 17 23 26 -33 45 -122 40 -176 88 -213 190 -30 81 -50 108 -61
81z"/>
<path d="M1670 2572 c0 -4 -10 -12 -22 -17 -13 -6 -24 -18 -26 -28 -3 -15 2
-17 40 -11 67 10 109 30 102 48 -4 11 -20 16 -50 16 -24 0 -44 -3 -44 -8z"/>
<path d="M1736 2466 c-56 -11 -90 -35 -73 -52 10 -11 145 17 158 32 12 15 4
35 -14 33 -7 -1 -39 -7 -71 -13z"/>
<path d="M1499 2343 c-6 -16 -8 -47 -4 -70 7 -48 -4 -60 -34 -35 -15 12 -22
30 -23 67 -2 38 -7 51 -20 53 -16 3 -18 -5 -18 -62 0 -72 13 -93 62 -103 16
-3 33 -14 39 -24 10 -20 39 -26 39 -8 0 5 4 8 9 4 11 -6 25 13 26 35 0 8 10
16 23 18 24 4 30 27 8 39 -7 4 -18 18 -25 31 -6 12 -18 22 -25 22 -7 0 -16 14
-19 30 -8 37 -24 39 -38 3z"/>
<path d="M2022 2248 c-7 -7 -12 -18 -12 -25 0 -8 -7 -16 -15 -19 -8 -4 -15
-14 -15 -24 0 -27 -17 -34 -25 -10 -4 11 -15 20 -26 20 -15 0 -19 -5 -14 -19
3 -10 -1 -23 -8 -30 -8 -6 -12 -22 -9 -36 6 -32 -5 -32 -40 2 -35 33 -48 23
-55 -42 -4 -35 -10 -45 -21 -43 -9 2 -19 14 -22 28 -8 36 -44 34 -48 -2 -2
-16 -7 -28 -11 -28 -14 0 -31 24 -31 46 0 32 -37 74 -66 74 -24 0 -34 -23 -14
-35 6 -3 10 -14 10 -25 0 -20 81 -114 112 -131 16 -9 20 -7 25 10 3 12 14 21
24 21 28 0 23 -15 -13 -39 -18 -11 -53 -34 -78 -51 -25 -16 -49 -31 -55 -34
-6 -2 -5 -9 3 -17 6 -7 12 -36 11 -63 l0 -51 -20 44 c-10 24 -33 61 -50 82
-24 31 -28 42 -20 58 21 39 12 77 -30 130 -23 29 -43 50 -46 47 -2 -2 8 -27
22 -56 15 -29 24 -58 21 -66 -6 -16 -87 -19 -115 -4 -14 7 -40 2 -97 -17 -68
-22 -87 -34 -136 -83 -48 -49 -60 -69 -79 -130 -53 -177 22 -343 203 -443 36
-21 72 -44 78 -53 11 -12 15 -10 31 15 10 16 42 47 71 69 76 57 103 88 138
162 l31 65 -4 -68 c-3 -59 -7 -72 -28 -88 -13 -10 -19 -19 -12 -19 21 0 85
-63 99 -97 8 -18 14 -49 14 -70 0 -68 17 -69 24 -1 5 41 16 76 32 101 13 20
26 37 29 37 15 0 54 -83 60 -127 l7 -52 -35 6 c-50 8 -77 -10 -77 -51 0 -24
-7 -38 -24 -49 -22 -15 -25 -14 -46 8 -12 13 -19 29 -15 35 4 6 -1 22 -9 35
-36 55 -137 12 -106 -45 12 -23 56 -44 71 -34 5 3 21 -4 36 -16 16 -12 33 -18
46 -14 15 5 18 2 13 -13 -4 -13 10 -33 58 -76 62 -54 86 -68 86 -48 0 10 -92
101 -117 114 -12 8 -11 13 8 33 14 15 29 22 40 19 10 -4 31 1 48 9 27 15 30
20 36 93 5 54 14 91 30 119 27 47 108 124 130 124 13 0 15 22 15 148 0 86 4
152 10 158 7 7 -5 21 -35 44 -25 19 -45 34 -45 35 0 1 11 16 25 35 28 37 31
66 13 105 -9 19 -9 28 0 37 18 18 15 28 -9 28 -11 0 -17 5 -14 10 3 6 -3 22
-14 36 -12 15 -21 31 -21 35 0 15 34 10 67 -11 18 -10 34 -16 36 -12 2 4 5 36
6 72 1 36 2 72 3 80 4 49 -13 65 -40 38z m-135 -218 c21 -11 46 -20 55 -20 10
0 18 -3 18 -7 0 -10 -66 -53 -80 -53 -13 0 -13 17 0 25 18 11 10 25 -15 25
-20 0 -25 5 -25 25 0 30 0 30 47 5z m-89 -150 c-18 -15 -35 -27 -36 -25 -10 9
12 47 31 54 38 15 40 0 5 -29z m172 25 c13 -15 5 -95 -10 -95 -20 0 -60 44
-60 65 0 38 47 58 70 30z m-494 -170 c34 -71 32 -75 -26 -75 l-50 0 0 87 0 86
26 -24 c15 -13 37 -46 50 -74z m338 36 c18 -20 18 -20 -15 -40 -19 -12 -37
-21 -41 -21 -10 0 -11 84 -2 93 9 8 35 -6 58 -32z m-573 -294 c-7 -7 -16 3
-27 27 -16 32 -17 47 -7 119 6 45 17 96 24 112 13 27 14 18 17 -109 1 -81 -1
-143 -7 -149z m679 89 c0 -114 -6 -156 -21 -156 -5 0 -9 66 -9 146 0 129 2
145 15 134 12 -10 15 -37 15 -124z m-150 -16 c0 -87 -4 -140 -10 -140 -6 0
-10 53 -10 140 0 87 4 140 10 140 6 0 10 -53 10 -140z m-275 -67 c-11 -48 -95
-120 -95 -83 0 6 17 33 37 60 42 56 69 67 58 23z m-155 -73 c0 -18 -3 -19 -20
-10 -11 6 -20 15 -20 20 0 6 9 10 20 10 13 0 20 -7 20 -20z m288 -286 c4 -30
-21 -48 -47 -34 -21 11 -28 40 -14 54 15 15 58 1 61 -20z m201 12 c24 -29 -17
-64 -53 -44 -16 9 -22 39 -9 51 11 12 50 8 62 -7z"/>
<path d="M2990 1982 c-19 -10 -57 -35 -85 -56 -27 -21 -65 -46 -82 -54 -34
-16 -40 -26 -23 -37 6 -4 10 -54 10 -117 l0 -111 -22 20 c-31 28 -76 50 -121
58 -20 4 -40 12 -43 17 -9 14 26 48 50 48 16 0 18 2 7 9 -11 7 -9 18 13 62 34
69 33 101 -4 141 l-29 33 6 -51 c4 -39 2 -54 -12 -67 -28 -29 -56 -20 -106 34
l-47 51 -63 -18 c-35 -9 -86 -28 -113 -41 -29 -15 -57 -22 -71 -19 -21 5 -24
0 -39 -59 -33 -130 -15 -204 63 -255 l44 -30 -37 0 c-33 0 -38 -3 -33 -19 2
-11 -6 -38 -19 -61 -35 -62 -33 -124 6 -160 55 -52 122 -48 181 11 l38 38 48
-25 c76 -40 90 -60 97 -134 3 -36 2 -70 -2 -76 -4 -6 -33 -25 -64 -43 -32 -18
-58 -37 -58 -42 0 -5 -11 -7 -24 -3 -35 8 -44 -15 -15 -39 65 -54 333 -153
391 -145 16 2 24 11 26 30 4 30 -2 33 -88 43 -87 11 -280 76 -280 94 0 14 59
41 89 41 21 0 63 21 131 65 91 59 100 67 90 85 -6 11 -13 20 -17 20 -3 0 -31
-17 -62 -37 -31 -21 -59 -37 -63 -35 -5 1 -8 -3 -8 -8 0 -6 -7 -10 -16 -10
-14 0 -15 9 -9 63 10 82 15 94 72 163 27 32 62 78 78 102 15 23 29 42 31 42 2
0 4 -18 4 -40 0 -30 -7 -47 -23 -64 l-24 -24 33 -16 c52 -24 82 -79 90 -164 4
-40 9 -71 10 -69 2 2 8 38 14 80 10 81 32 147 49 147 26 0 60 -76 67 -148 4
-40 9 -71 11 -68 3 2 8 34 13 71 5 42 17 78 31 100 23 32 25 33 42 17 11 -9
25 -29 33 -44 19 -36 38 -35 54 1 6 16 20 37 30 46 18 16 20 15 44 -22 17 -25
27 -59 32 -103 7 -65 7 -65 -13 -47 -18 16 -23 16 -49 3 -16 -8 -38 -18 -49
-22 -13 -4 -15 -8 -7 -11 7 -3 -17 -36 -63 -86 -45 -48 -75 -89 -75 -102 0
-11 -5 -26 -12 -33 -15 -15 -3 -28 14 -15 7 6 25 13 41 17 16 4 68 47 125 104
l98 97 11 82 c7 52 19 95 33 118 l23 37 24 -25 c26 -26 42 -79 43 -139 0 -64
17 -42 24 30 6 55 13 76 35 102 l28 34 26 -39 c15 -22 27 -53 28 -70 0 -16 4
-48 8 -70 7 -39 7 -38 19 38 10 66 18 86 54 133 34 45 42 65 46 110 2 30 2 54
-2 54 -3 0 -15 -20 -27 -45 -12 -25 -28 -45 -36 -45 -13 0 -14 33 -11 229 3
208 5 231 22 250 23 25 64 28 73 5 3 -9 1 -36 -4 -60 -10 -43 -10 -44 8 -28 9
8 25 31 34 50 14 30 14 37 0 70 -11 26 -12 41 -5 48 38 38 -44 30 -95 -9 -19
-14 -38 -25 -44 -25 -14 0 -14 27 -1 35 19 12 10 25 -19 25 -17 0 -53 -17 -91
-42 -34 -24 -85 -58 -113 -76 l-52 -32 -42 47 -43 48 25 -55 c38 -84 29 -135
-17 -93 -20 18 -21 17 -35 -4 -22 -32 -66 -30 -90 3 l-20 26 -23 -38 -24 -39
-7 45 c-13 75 -27 144 -34 161 -3 10 -2 20 4 24 6 3 11 10 11 16 0 15 -43 10
-80 -9z m21 -93 c6 -12 9 -39 6 -61 -4 -33 -3 -37 9 -27 11 9 14 8 14 -5 0
-21 -19 -20 -43 1 -18 17 -20 17 -43 -12 l-24 -30 0 42 c0 90 51 148 81 92z
m579 13 c0 -5 -16 -16 -35 -25 -36 -17 -49 -5 -23 21 13 13 58 16 58 4z m-60
-282 c0 -190 -6 -240 -24 -194 -15 39 -1 404 15 404 5 0 9 -94 9 -210z m-1086
159 c32 -23 55 -43 52 -46 -8 -8 -97 25 -118 44 -21 19 -24 43 -5 43 8 0 40
-18 71 -41z m941 -336 c-3 -18 -10 -33 -15 -33 -15 0 -13 290 3 331 11 30 12
17 15 -116 2 -82 0 -165 -3 -182z m-285 221 c0 -18 -47 -37 -66 -26 -13 7 -12
12 6 35 18 22 25 25 41 17 10 -6 19 -17 19 -26z m130 -248 c-7 -7 -10 28 -10
110 0 67 3 124 8 128 4 4 8 -45 10 -110 2 -71 -1 -121 -8 -128z m-130 105 c0
-82 -6 -111 -21 -111 -10 0 -12 173 -2 183 17 18 23 1 23 -72z m-677 -7 c15
-3 27 -10 27 -15 0 -14 -22 -10 -60 12 -19 11 -26 17 -15 15 11 -3 32 -8 48
-12z m199 -50 c32 -17 39 -54 9 -54 -10 0 -41 10 -70 21 -48 20 -61 36 -44 53
10 10 70 -2 105 -20z m328 -30 c0 -21 -4 -33 -10 -29 -5 3 -10 22 -10 41 0 21
4 33 10 29 6 -3 10 -22 10 -41z m-604 -35 c27 -12 51 -23 53 -25 3 -2 -6 -15
-19 -29 -49 -52 -132 -16 -116 50 8 31 20 31 82 4z"/>
<path d="M2051 1171 c-9 -17 0 -26 83 -76 69 -41 99 -55 117 -50 15 3 35 -2
53 -14 l28 -19 -23 -15 c-40 -26 -169 -73 -253 -93 -81 -19 -100 -34 -73 -61
14 -14 22 -13 89 6 79 24 258 109 297 141 25 22 23 54 -4 44 -8 -4 -22 0 -31
7 -8 7 -41 26 -73 43 -32 17 -87 48 -123 69 -36 20 -68 37 -71 37 -4 0 -11 -9
-16 -19z"/>
<path d="M1601 964 c-44 -40 -65 -74 -45 -74 14 0 124 103 118 111 -9 16 -21
10 -73 -37z"/>
<path d="M2125 830 c-3 -5 -1 -10 4 -10 6 0 11 5 11 10 0 6 -2 10 -4 10 -3 0
-8 -4 -11 -10z"/>
<path d="M2735 830 c-3 -5 1 -10 9 -10 9 0 16 5 16 10 0 6 -4 10 -9 10 -6 0
-13 -4 -16 -10z"/>
<path d="M3285 830 c-3 -5 -1 -10 4 -10 6 0 11 5 11 10 0 6 -2 10 -4 10 -3 0
-8 -4 -11 -10z"/>
<path d="M1248 814 c-16 -15 -7 -24 25 -25 18 -1 24 -3 14 -6 -18 -5 -18 -5 0
-19 16 -12 16 -15 3 -24 -13 -9 -13 -12 3 -21 11 -6 17 -22 17 -45 0 -34 -1
-35 -29 -29 -20 4 -30 2 -34 -8 -4 -10 6 -18 32 -26 21 -6 54 -22 74 -36 37
-24 37 -24 48 -4 6 12 9 22 7 23 -2 2 -12 8 -23 14 -11 6 -14 12 -7 12 8 0 12
16 12 45 0 38 3 45 20 45 18 0 20 -7 20 -85 0 -47 4 -85 8 -85 23 0 32 30 32
107 0 78 -2 84 -22 92 -13 5 -31 5 -40 -1 -15 -7 -18 -4 -18 23 0 29 2 31 29
26 34 -7 64 16 35 27 -27 10 -54 7 -80 -11 -20 -13 -27 -14 -33 -4 -9 15 -82
26 -93 15z m97 -192 c-10 -10 -10 2 -5 83 l5 80 3 -79 c2 -43 0 -81 -3 -84z"/>
<path d="M2260 803 c0 -16 6 -19 33 -17 17 2 24 1 15 -2 -16 -5 -17 -7 -2 -21
13 -13 13 -18 2 -24 -10 -7 -11 -11 0 -17 7 -5 15 -26 19 -46 6 -38 6 -38 -24
-32 -23 5 -32 3 -36 -8 -4 -10 -1 -16 7 -16 7 0 32 -14 55 -31 41 -29 44 -30
62 -13 16 15 19 31 19 116 0 80 3 98 15 98 12 0 15 -17 15 -96 0 -52 5 -104
11 -115 10 -19 12 -19 28 -5 16 15 19 15 31 1 11 -14 14 -13 26 2 13 17 15 17
30 -2 15 -20 15 -20 30 0 13 18 15 18 30 3 14 -13 20 -14 36 -5 15 10 21 9 28
-3 9 -13 11 -13 20 0 5 8 8 21 5 28 -3 8 -5 58 -5 113 0 97 -1 99 -20 89 -18
-10 -20 -21 -20 -105 0 -57 -4 -95 -10 -95 -6 0 -10 31 -10 74 0 51 -4 76 -12
79 -10 3 -10 8 1 21 10 12 11 20 3 28 -21 21 -29 -3 -25 -79 4 -82 -1 -123
-17 -123 -6 0 -10 32 -10 74 l0 74 -32 5 c-32 5 -58 -6 -58 -25 0 -5 3 -7 8
-5 4 3 17 1 30 -4 18 -7 22 -16 22 -48 0 -44 -8 -71 -21 -71 -5 0 -9 25 -9 56
0 40 -3 55 -12 52 -7 -3 -14 -11 -15 -19 -8 -61 -15 -89 -24 -89 -7 0 -9 40
-7 110 l3 110 -28 0 c-15 0 -41 -7 -57 -15 -16 -8 -30 -11 -32 -5 -2 5 -24 13
-50 16 -43 6 -48 5 -48 -13z m105 -191 c-3 -3 -11 0 -17 6 -9 9 -9 12 0 12 8
0 13 25 14 78 l2 77 3 -84 c2 -46 1 -86 -2 -89z"/>
<path d="M2844 805 c-26 -12 -32 -21 -37 -57 -5 -36 -3 -46 15 -61 12 -10 34
-21 50 -24 17 -3 28 -12 28 -22 0 -13 2 -13 9 -2 12 18 65 1 69 -22 5 -23 -16
-21 -83 9 -56 24 -85 26 -85 4 0 -5 4 -10 10 -10 5 0 39 -14 76 -31 36 -17 67
-29 68 -28 31 37 66 96 66 111 0 13 -13 24 -37 35 -49 20 -48 18 -29 45 21 29
20 38 -3 38 -10 0 -24 7 -31 15 -15 18 -44 18 -86 0z m62 -39 c41 -42 32 -51
-24 -26 -39 18 -52 37 -35 53 12 13 26 7 59 -27z m-21 -68 c26 -7 25 -7 -9 -3
-22 2 -47 12 -55 21 -15 15 -14 15 9 3 14 -7 39 -16 55 -21z m86 -29 l24 -20
-30 17 c-39 24 -40 24 -28 24 6 0 21 -9 34 -21z"/>
<path d="M1619 803 c-1 -4 -2 -49 -3 -100 0 -50 -5 -95 -9 -99 -15 -16 -24 18
-21 81 l3 63 -32 5 c-18 2 -38 0 -44 -5 -14 -11 -17 -29 -5 -27 37 6 42 -1 42
-61 0 -33 -4 -60 -10 -60 -5 0 -10 25 -10 55 0 52 -10 69 -26 44 -14 -23 -13
-104 1 -123 14 -19 16 -19 28 -2 13 17 14 17 31 1 16 -17 18 -16 31 1 13 18
14 18 33 1 15 -14 21 -15 25 -5 3 10 9 11 25 1 27 -16 30 -11 31 65 0 35 3 67
6 73 4 5 1 9 -5 9 -6 0 -9 4 -6 9 7 11 -18 33 -27 24 -4 -3 -7 -39 -7 -80 0
-42 -4 -73 -10 -73 -6 0 -10 32 -10 75 0 44 -4 75 -10 75 -6 0 -8 10 -4 24 3
13 1 27 -5 30 -6 4 -12 4 -12 -1z"/>
<path d="M2079 794 c-9 -11 -9 -17 1 -29 10 -12 10 -19 2 -27 -7 -7 -12 -35
-12 -62 0 -28 -5 -58 -10 -66 -7 -10 -10 8 -10 61 0 69 -2 77 -21 82 -14 4
-23 -1 -29 -16 -7 -17 -9 -18 -9 -4 -1 10 -9 17 -20 17 -18 0 -20 -7 -19 -70
0 -74 -5 -91 -23 -73 -7 7 -10 37 -7 76 l4 65 -31 5 c-16 3 -36 0 -42 -5 -14
-11 -17 -29 -5 -27 37 6 42 -1 42 -61 0 -33 -4 -60 -10 -60 -5 0 -10 25 -10
55 0 56 -6 65 -28 43 -17 -17 -14 -99 4 -123 15 -19 16 -19 25 -2 10 18 12 18
30 1 18 -17 20 -16 34 2 15 19 15 19 30 0 22 -29 28 -14 26 64 -1 43 2 70 9
70 6 0 10 -25 10 -57 1 -35 6 -66 15 -77 14 -19 16 -19 28 -2 12 16 14 17 27
1 12 -14 16 -13 47 17 29 28 33 38 33 86 0 48 -4 59 -34 93 -29 31 -37 35 -47
23z m51 -119 c0 -48 -8 -75 -21 -75 -5 0 -9 32 -9 71 0 62 2 70 15 59 9 -8 15
-29 15 -55z"/>
<path d="M3060 800 c-19 -12 -21 -202 -2 -227 13 -17 14 -17 26 0 12 15 15 16
26 2 12 -14 15 -14 30 0 15 14 18 14 30 0 12 -14 15 -14 32 1 17 16 19 16 32
-1 13 -19 15 -18 45 14 28 30 31 39 31 96 0 56 -3 64 -25 79 -14 9 -25 23 -25
31 0 19 -14 19 -30 0 -10 -13 -10 -19 4 -34 15 -16 15 -19 1 -24 -11 -5 -15
-22 -15 -72 0 -53 -3 -65 -16 -65 -14 0 -16 12 -13 78 4 73 3 78 -16 77 -18
-2 -19 -8 -16 -79 2 -62 0 -77 -11 -74 -9 3 -13 25 -14 70 -2 72 -10 96 -27
79 -6 -6 -9 -42 -8 -81 2 -45 -2 -70 -9 -70 -7 0 -10 34 -9 101 0 55 -1 102
-3 104 -2 2 -10 0 -18 -5z m220 -136 c0 -48 -3 -65 -12 -62 -14 5 -24 99 -14
125 12 32 26 -2 26 -63z"/>
<path d="M3339 806 c-2 -3 -4 -52 -3 -111 1 -83 5 -110 17 -122 15 -15 17 -15
23 1 6 15 8 16 24 1 16 -15 20 -14 48 14 26 27 30 39 34 98 3 67 3 68 -22 68
-14 -1 -35 -6 -47 -13 -20 -11 -23 -21 -23 -77 0 -37 -4 -65 -10 -65 -6 0 -10
31 -10 74 0 50 -4 76 -12 79 -10 3 -10 7 -1 17 17 18 -1 53 -18 36z m111 -147
c0 -81 -24 -77 -28 4 -2 46 0 57 13 57 12 0 15 -13 15 -61z"/>
<path d="M1724 749 c-2 -4 -1 -21 2 -38 l7 -32 18 31 c11 17 19 34 19 38 0 10
-40 10 -46 1z"/>
</g>
</svg>
